<svg id="visual" viewBox="0 0 900 100" width="900" height="100" xmlns="http://www.w3.org/2000/svg" xmlns:xlink="http://www.w3.org/1999/xlink" version="1.1"><path d="M0 52L21.5 55.5C43 59 86 66 128.8 68.7C171.7 71.3 214.3 69.7 257.2 67.3C300 65 343 62 385.8 56.2C428.7 50.3 471.3 41.7 514.2 43C557 44.3 600 55.7 642.8 54.7C685.7 53.7 728.3 40.3 771.2 38.8C814 37.3 857 47.7 878.5 52.8L900 58L900 101L878.5 101C857 101 814 101 771.2 101C728.3 101 685.7 101 642.8 101C600 101 557 101 514.2 101C471.3 101 428.7 101 385.8 101C343 101 300 101 257.2 101C214.3 101 171.7 101 128.8 101C86 101 43 101 21.5 101L0 101Z" fill="#333" stroke-linecap="round" stroke-linejoin="miter"></path></svg>