<svg id="visual" viewBox="0 0 900 600" width="900" height="600" xmlns="http://www.w3.org/2000/svg" xmlns:xlink="http://www.w3.org/1999/xlink" version="1.1"><path d="M0 579L21.5 575.2C43 571.3 86 563.7 128.8 562.5C171.7 561.3 214.3 566.7 257.2 569.3C300 572 343 572 385.8 570.3C428.7 568.7 471.3 565.3 514.2 566.3C557 567.3 600 572.7 642.8 573.7C685.7 574.7 728.3 571.3 771.2 568.3C814 565.3 857 562.7 878.5 561.3L900 560L900 601L878.5 601C857 601 814 601 771.2 601C728.3 601 685.7 601 642.8 601C600 601 557 601 514.2 601C471.3 601 428.7 601 385.8 601C343 601 300 601 257.2 601C214.3 601 171.7 601 128.8 601C86 601 43 601 21.5 601L0 601Z" fill="#333" stroke-linecap="round" stroke-linejoin="miter"></path></svg>